# ProBuilder 5.2.2
# https://unity3d.com/unity/features/worldbuilding/probuilder
# 07-05-2024 18:20:13

mtllib ./Grass_Mesh.mtl
o Grass_Mesh

g PolyShape
v 0.01620009 0.0002719164 -0.008827515 0.02721179 0.6038274 0.05127734
v 0 0 -0.008827709 0.02721179 0.6038274 0.05127734
v 0 5.960464E-08 0.008827701 0.02721179 0.6038274 0.05127734
v 0.01620009 0.0002719164 0.00882791 0.02721179 0.6038274 0.05127734
v -0.01620009 -0.0002719164 -0.00882791 0.02721179 0.6038274 0.05127734
v -0.01620009 -0.0002719164 0.008827507 0.02721179 0.6038274 0.05127734
v -0.006410368 0.1431776 -0.004414313 0.02721179 0.6038274 0.05127734
v -0.001515508 0.2149023 -0.002207518 1 0.05290079 0.03696759
v -0.001515508 0.2149023 0.00220634 1 0.05290079 0.03696759
v -0.006410368 0.1431776 0.004413396 0.02721179 0.6038274 0.05127734
v 0.003379352 0.2866272 -7.227063E-07 1 0.05290079 0.03696759
v 0.00978972 0.1434495 0.00441359 0.02721179 0.6038274 0.05127734
v 0.006584536 0.2150384 0.002206445 1 0.05290079 0.03696759
v 0.006584536 0.2150384 -0.002207413 1 0.05290079 0.03696759
v 0.00978972 0.1434495 -0.004414119 0.02721179 0.6038274 0.05127734
v 0.001689676 0.1433136 0.004413486 0.02721179 0.6038274 0.05127734
v 0.002534512 0.2149704 0.002206385 1 0.05290079 0.03696759
v 0.002534512 0.2149704 -0.002207465 1 0.05290079 0.03696759
v 0.001689676 0.1433136 -0.004414223 0.02721179 0.6038274 0.05127734
v -0.01130523 0.07145286 -0.006621115 0.02721179 0.6038274 0.05127734
v -0.01130523 0.07145286 0.006620452 0.02721179 0.6038274 0.05127734
v 0.01299491 0.07186073 0.006620735 0.02721179 0.6038274 0.05127734
v 0.01299491 0.07186073 -0.006620824 0.02721179 0.6038274 0.05127734
v 0.0008448362 0.07165682 0.006620601 0.02721179 0.6038274 0.05127734
v 0.0008448362 0.07165676 -0.006620966 0.02721179 0.6038274 0.05127734

vt 0.5162024 0.4911725
vt 0.5 0.4911723
vt 0.5 0.5088277
vt 0.5162024 0.5088279
vt 0.4837976 0.4911721
vt 0.4837976 0.5088275
vt 0.4955857 0.6424089
vt 0.4977925 0.7143005
vt 0.5022063 0.7143005
vt 0.5044134 0.6424089
vt 0.4999993 0.7861922
vt 0.4955864 0.6428681
vt 0.4977936 0.7145287
vt 0.5022074 0.7145287
vt 0.5044141 0.6428681
vt 0.5000007 0.7861892
vt 0.501692 0.6431097
vt 0.5025357 0.7148006
vt 0.5065857 0.7148685
vt 0.509792 0.6432458
vt 0.5033793 0.7864914
vt 0.493592 0.6429737
vt 0.4984857 0.7147325
vt 0.4902081 0.6432458
vt 0.4934143 0.7148685
vt 0.4974644 0.7148006
vt 0.4983081 0.6431098
vt 0.4966207 0.7864914
vt 0.5015144 0.7147325
vt 0.5064082 0.6429738
vt 0.4911721 0.4986257
vt 0.4933789 0.5705173
vt 0.5066205 0.5705173
vt 0.5088275 0.4986257
vt 0.4911721 0.4995471
vt 0.4933793 0.5712076
vt 0.5066208 0.5712076
vt 0.5088275 0.4995471
vt 0.5129984 0.571623
vt 0.5008484 0.571419
vt 0.5162048 0.5000002
vt 0.5000046 0.4997282
vt 0.4838046 0.4994561
vt 0.4886983 0.5712149
vt 0.4999955 0.4997282
vt 0.4837955 0.5000002
vt 0.4870017 0.571623
vt 0.4991518 0.5714189
vt 0.5113019 0.571215
vt 0.5161957 0.4994562

vn 0.01678067 -0.9998592 1.687762E-06
vn -0.9976794 0.06808672 0
vn 0.9989992 0.04472733 0
vn -0.0005305269 0.03079258 0.9995257
vn -0.0005038937 0.03078755 -0.9995258

usemtl M_Grass
f 9/9/2 11/11/2 8/8/2
f 14/14/3 11/16/3 13/13/3
f 13/19/4 11/21/4 17/18/4
f 17/18/4 11/21/4 9/23/4
f 18/26/5 11/28/5 14/25/5
f 18/26/5 8/29/5 11/28/5
f 3/3/1 2/2/1 1/1/1
f 1/1/1 4/4/1 3/3/1
f 6/6/1 5/5/1 2/2/1
f 2/2/1 3/3/1 6/6/1
f 9/9/2 8/8/2 7/7/2
f 7/7/2 10/10/2 9/9/2
f 14/14/3 13/13/3 12/12/3
f 12/12/3 15/15/3 14/14/3
f 12/20/4 13/19/4 17/18/4
f 17/18/4 16/17/4 12/20/4
f 17/18/4 9/23/4 10/22/4
f 10/22/4 16/17/4 17/18/4
f 14/25/5 15/24/5 19/27/5
f 19/27/5 18/26/5 14/25/5
f 8/29/5 18/26/5 19/27/5
f 19/27/5 7/30/5 8/29/5
f 21/33/2 20/32/2 5/31/2
f 5/31/2 6/34/2 21/33/2
f 10/10/2 7/7/2 20/32/2
f 20/32/2 21/33/2 10/10/2
f 23/37/3 22/36/3 4/35/3
f 4/35/3 1/38/3 23/37/3
f 15/15/3 12/12/3 22/36/3
f 22/36/3 23/37/3 15/15/3
f 22/39/4 12/20/4 16/17/4
f 16/17/4 24/40/4 22/39/4
f 4/41/4 22/39/4 24/40/4
f 24/40/4 3/42/4 4/41/4
f 24/40/4 21/44/4 6/43/4
f 6/43/4 3/42/4 24/40/4
f 16/17/4 10/22/4 21/44/4
f 21/44/4 24/40/4 16/17/4
f 23/47/5 1/46/5 2/45/5
f 2/45/5 25/48/5 23/47/5
f 15/24/5 23/47/5 25/48/5
f 25/48/5 19/27/5 15/24/5
f 20/49/5 25/48/5 2/45/5
f 2/45/5 5/50/5 20/49/5
f 7/30/5 19/27/5 25/48/5
f 25/48/5 20/49/5 7/30/5

